{
    "asset" : {
        "generator" : "Khronos glTF Blender I/O v3.4.49",
        "version" : "2.0"
    },
    "scene" : 0,
    "scenes" : [
        {
            "name" : "Scene",
            "nodes" : [
                0
            ]
        }
    ],
    "nodes" : [
        {
            "mesh" : 0,
            "name" : "SM_PingPongPaddle"
        }
    ],
    "materials" : [
        {
            "doubleSided" : true,
            "name" : "M_PingPongPaddle",
            "pbrMetallicRoughness" : {
                "baseColorTexture" : {
                    "index" : 0
                },
                "metallicFactor" : 0,
                "roughnessFactor" : 0.5
            }
        }
    ],
    "meshes" : [
        {
            "name" : "Cube.017",
            "primitives" : [
                {
                    "attributes" : {
                        "POSITION" : 0,
                        "TEXCOORD_0" : 1,
                        "NORMAL" : 2
                    },
                    "indices" : 3,
                    "material" : 0
                }
            ]
        }
    ],
    "textures" : [
        {
            "sampler" : 0,
            "source" : 0
        }
    ],
    "images" : [
        {
            "bufferView" : 4,
            "mimeType" : "image/png",
            "name" : "T_PingPongPaddle_BC.tga"
        }
    ],
    "accessors" : [
        {
            "bufferView" : 0,
            "componentType" : 5126,
            "count" : 1036,
            "max" : [
                0.07459516078233719,
                0.009845324791967869,
                0.04761888086795807
            ],
            "min" : [
                -0.07459516078233719,
                -0.010458203963935375,
                -0.20250916481018066
            ],
            "type" : "VEC3"
        },
        {
            "bufferView" : 1,
            "componentType" : 5126,
            "count" : 1036,
            "type" : "VEC2"
        },
        {
            "bufferView" : 2,
            "componentType" : 5126,
            "count" : 1036,
            "type" : "VEC3"
        },
        {
            "bufferView" : 3,
            "componentType" : 5123,
            "count" : 4146,
            "type" : "SCALAR"
        }
    ],
    "bufferViews" : [
        {
            "buffer" : 0,
            "byteLength" : 12432,
            "byteOffset" : 0,
            "target" : 34962
        },
        {
            "buffer" : 0,
            "byteLength" : 8288,
            "byteOffset" : 12432,
            "target" : 34962
        },
        {
            "buffer" : 0,
            "byteLength" : 12432,
            "byteOffset" : 20720,
            "target" : 34962
        },
        {
            "buffer" : 0,
            "byteLength" : 8292,
            "byteOffset" : 33152,
            "target" : 34963
        },
        {
            "buffer" : 0,
            "byteLength" : 1006514,
            "byteOffset" : 41444
        }
    ],
    "samplers" : [
        {
            "magFilter" : 9729,
            "minFilter" : 9987
        }
    ],
    "buffers" : [
        {
            "byteLength" : 1047960,
            "uri" : "data:application/octet-stream;base64,"
        }
    ]
}
